<svg xmlns="http://www.w3.org/2000/svg" viewBox="0 0 346.22 301.11" style="fill: rebeccapurple;"><path d="M118.44 283a2.49 2.49 0 012.43-1.9 2.64 2.64 0 012.47 1.78l2.92 9.79 2.92-9.79a2.63 2.63 0 012.47-1.78 2.47 2.47 0 012.42 1.9l2.3 13.8a2.17 2.17 0 010 .43 1.72 1.72 0 01-1.78 1.78c-1.26 0-1.76-.57-1.93-1.74l-1.46-10.06h-.05l-3 10.36a2.08 2.08 0 01-4 0l-3-10.36-1.46 10.06c-.18 1.17-.67 1.74-1.93 1.74a1.72 1.72 0 01-1.78-1.78 3.24 3.24 0 010-.43zM138.51 283a1.86 1.86 0 113.71 0v8.63a3.79 3.79 0 003.81 4.08 3.88 3.88 0 003.78-4.08V283a1.86 1.86 0 113.71 0v8.83a7.51 7.51 0 01-15 0zM156.1 283a1.86 1.86 0 113.71 0v12.41h4.4a1.68 1.68 0 011.78 1.79 1.73 1.73 0 01-1.78 1.63H158a1.83 1.83 0 01-1.93-2zM167.8 284.64h-2.7a1.6 1.6 0 01-1.68-1.71 1.65 1.65 0 011.68-1.7h9.11a1.65 1.65 0 011.68 1.7 1.6 1.6 0 01-1.68 1.71h-2.7v12.42a1.86 1.86 0 11-3.71 0zM177.2 283a1.86 1.86 0 113.71 0v14.05a1.86 1.86 0 11-3.71 0zM185.44 283a2.48 2.48 0 012.42-1.9 2.65 2.65 0 012.48 1.78l2.92 9.79 2.92-9.79a2.65 2.65 0 012.48-1.78 2.48 2.48 0 012.42 1.9l2.3 13.8a2.17 2.17 0 010 .43 1.72 1.72 0 01-1.78 1.78c-1.27 0-1.76-.57-1.93-1.74l-1.46-10.06h-.05l-3 10.36a2.08 2.08 0 01-4 0l-3-10.36h-.05l-1.46 10.06c-.17 1.17-.66 1.74-1.92 1.74a1.73 1.73 0 01-1.79-1.78 2.17 2.17 0 010-.43zM205.65 283.38c0-1.24.62-2.15 1.93-2.15h6.14a1.64 1.64 0 011.75 1.7 1.67 1.67 0 01-1.75 1.71h-4.36v3.61h4.06a1.68 1.68 0 011.81 1.71 1.7 1.7 0 01-1.81 1.7h-4.06v3.76h4.58a1.65 1.65 0 011.76 1.71 1.68 1.68 0 01-1.76 1.71h-6.38a1.81 1.81 0 01-1.91-1.86zM217.6 283.13a1.81 1.81 0 011.91-1.9h4.1c5.54 0 8.71 3.56 8.71 9 0 5.19-3.36 8.56-8.46 8.56h-4.3a1.82 1.82 0 01-2-1.86zm3.71 12.29h2.5c3.19 0 4.65-2.35 4.65-5.31 0-3.17-1.48-5.47-4.9-5.47h-2.25zM234.6 283a1.86 1.86 0 113.71 0v14.05a1.86 1.86 0 11-3.71 0zM245.11 283a2.91 2.91 0 012.65-2.05 2.81 2.81 0 012.65 2.05l4.84 13.46a2.82 2.82 0 01.2.91 1.65 1.65 0 01-1.71 1.64 1.74 1.74 0 01-1.8-1.29l-.74-2.33h-6.88l-.74 2.3a1.73 1.73 0 01-1.78 1.31 1.78 1.78 0 01-1.83-1.74 2.09 2.09 0 01.17-.81zm.27 9h4.7l-2.3-7.17h-.05zM264.24 283.38c0-1.24.62-2.15 1.93-2.15h6.13a1.65 1.65 0 011.76 1.7 1.68 1.68 0 01-1.76 1.71H268v3.61h4a1.67 1.67 0 011.81 1.71 1.7 1.7 0 01-1.81 1.7h-4v3.76h4.57a1.65 1.65 0 011.76 1.71 1.68 1.68 0 01-1.76 1.71h-6.38a1.8 1.8 0 01-1.9-1.86zM276 283a1.77 1.77 0 011.85-1.93 2.33 2.33 0 011.56.81l7.84 10.47V283a1.86 1.86 0 113.71 0v14.05a1.78 1.78 0 01-1.76 1.95 2.4 2.4 0 01-1.56-.82l-7.84-10.34h-.05v9.23a1.86 1.86 0 11-3.71 0zM47.5 304.15c1.8 0 5.32.59 5.32 2.77a1.58 1.58 0 01-1.54 1.66c-1 0-1.7-.87-3.78-.87-3.07 0-4.65 2.6-4.65 5.62s1.61 5.46 4.65 5.46c2.08 0 2.92-1 3.93-1a1.75 1.75 0 011.63 1.69c0 2.37-3.73 2.91-5.56 2.91-5 0-8.51-4-8.51-9.1s3.46-9.14 8.51-9.14zM54.6 313.25c0-5.14 3.46-9.1 8.51-9.1s8.51 4.08 8.51 9.1-3.44 9.1-8.51 9.1-8.51-3.98-8.51-9.1zm13.16 0c0-3-1.56-5.69-4.65-5.69s-4.65 2.7-4.65 5.69 1.51 5.69 4.65 5.69 4.65-2.67 4.65-5.69zM74.59 306.2a2.48 2.48 0 012.41-1.9 2.64 2.64 0 012.48 1.78l2.92 9.79 2.91-9.79a2.65 2.65 0 012.48-1.78 2.48 2.48 0 012.42 1.9l2.3 13.8a2.13 2.13 0 010 .42 1.72 1.72 0 01-1.78 1.79c-1.27 0-1.76-.57-1.93-1.74l-1.46-10.06h-.05l-3 10.36a2.08 2.08 0 01-4 0l-3-10.36L76 320.47c-.18 1.17-.67 1.74-1.93 1.74a1.72 1.72 0 01-1.78-1.79 3.17 3.17 0 010-.42zM96.61 306.2a2.48 2.48 0 012.39-1.9 2.65 2.65 0 012.48 1.78l2.92 9.79 2.92-9.79a2.65 2.65 0 012.48-1.78 2.48 2.48 0 012.42 1.9l2.3 13.8a2.13 2.13 0 010 .42 1.73 1.73 0 01-1.79 1.79c-1.26 0-1.75-.57-1.92-1.74l-1.46-10.06-3 10.36a2.08 2.08 0 01-4 0l-3-10.36L98 320.47c-.17 1.17-.66 1.74-1.93 1.74a1.73 1.73 0 01-1.78-1.79 2.13 2.13 0 010-.42zM115.71 306.23a1.86 1.86 0 113.71 0v8.63a3.79 3.79 0 003.81 4.08 3.88 3.88 0 003.78-4.08v-8.63a1.86 1.86 0 113.71 0v8.83a7.51 7.51 0 01-15 0zM133.15 306.23a1.77 1.77 0 011.85-1.93 2.3 2.3 0 011.55.81l7.85 10.47v-9.35a1.86 1.86 0 113.71 0v14a1.78 1.78 0 01-1.85 1.93 2.4 2.4 0 01-1.56-.82L136.86 311v9.23a1.86 1.86 0 11-3.71 0zM150.74 306.23a1.86 1.86 0 113.71 0v14a1.86 1.86 0 11-3.71 0zM165 304.15c1.81 0 5.32.59 5.32 2.77a1.58 1.58 0 01-1.54 1.66c-1 0-1.7-.87-3.78-.87-3.07 0-4.65 2.6-4.65 5.62s1.61 5.46 4.65 5.46c2.08 0 2.92-1 3.93-1a1.75 1.75 0 011.64 1.69c0 2.37-3.74 2.91-5.57 2.91-5 0-8.51-4-8.51-9.1s3.45-9.14 8.51-9.14zM176.87 306.2a2.9 2.9 0 012.64-2.05 2.81 2.81 0 012.65 2.05l4.84 13.46a2.82 2.82 0 01.2.91 1.66 1.66 0 01-1.71 1.64 1.74 1.74 0 01-1.81-1.29l-.74-2.33h-6.88l-.74 2.3a1.71 1.71 0 01-1.78 1.32 1.78 1.78 0 01-1.83-1.74 2.3 2.3 0 01.17-.81zm.27 9h4.7l-2.3-7.17zM189.56 307.86h-2.7a1.6 1.6 0 01-1.68-1.71 1.65 1.65 0 011.68-1.7H196a1.66 1.66 0 011.69 1.7 1.61 1.61 0 01-1.69 1.71h-2.69v12.42a1.86 1.86 0 11-3.71 0zM199 306.23a1.86 1.86 0 113.71 0v14a1.86 1.86 0 11-3.71 0zM205.39 306.6c0-1.24.62-2.15 1.93-2.15h6.14a1.64 1.64 0 011.75 1.7 1.67 1.67 0 01-1.75 1.71h-4.36v3.61h4.06a1.67 1.67 0 011.8 1.71 1.69 1.69 0 01-1.8 1.7h-4.06v3.76h4.58a1.65 1.65 0 011.75 1.71 1.67 1.67 0 01-1.75 1.71h-6.38a1.81 1.81 0 01-1.91-1.86zM222 307.86h-2.7a1.61 1.61 0 01-1.69-1.71 1.66 1.66 0 011.69-1.7h9.1a1.65 1.65 0 011.68 1.7 1.6 1.6 0 01-1.68 1.71h-2.7v12.42a1.86 1.86 0 11-3.71 0zM231.39 306.6c0-1.24.62-2.15 1.93-2.15h6.14a1.64 1.64 0 011.75 1.7 1.67 1.67 0 01-1.75 1.71h-4.36v3.61h4.06a1.68 1.68 0 011.81 1.71 1.7 1.7 0 01-1.81 1.7h-4.06v3.76h4.58a1.65 1.65 0 011.76 1.71 1.68 1.68 0 01-1.76 1.71h-6.38a1.81 1.81 0 01-1.91-1.86zM251.16 304.15c1.81 0 5.32.59 5.32 2.77a1.58 1.58 0 01-1.54 1.66c-1 0-1.7-.87-3.78-.87-3.07 0-4.65 2.6-4.65 5.62s1.61 5.46 4.65 5.46c2.08 0 2.92-1 3.93-1a1.75 1.75 0 011.64 1.69c0 2.37-3.74 2.91-5.57 2.91-5 0-8.51-4-8.51-9.1s3.46-9.14 8.51-9.14zM259 306.23a1.86 1.86 0 113.71 0v5.24h7.76v-5.24a1.86 1.86 0 113.71 0v14a1.86 1.86 0 11-3.71 0v-5.4h-7.76v5.4a1.86 1.86 0 11-3.71 0zM276.72 306.23a1.77 1.77 0 011.85-1.93 2.33 2.33 0 011.56.81l7.87 10.47v-9.35a1.86 1.86 0 113.71 0v14a1.78 1.78 0 01-1.85 1.93 2.4 2.4 0 01-1.56-.82L280.46 311h-.05v9.23a1.86 1.86 0 11-3.71 0zM293.62 313.25c0-5.14 3.46-9.1 8.51-9.1s8.5 4.08 8.5 9.1-3.43 9.1-8.5 9.1-8.51-3.98-8.51-9.1zm13.16 0c0-3-1.56-5.69-4.65-5.69s-4.65 2.7-4.65 5.69 1.5 5.69 4.65 5.69 4.65-2.67 4.65-5.69zM312.67 306.23a1.86 1.86 0 113.71 0v12.41h4.4a1.68 1.68 0 011.78 1.78 1.73 1.73 0 01-1.78 1.64h-6.18a1.83 1.83 0 01-1.93-2zM322.37 313.25c0-5.14 3.46-9.1 8.5-9.1s8.51 4.08 8.51 9.1-3.44 9.1-8.51 9.1-8.5-3.98-8.5-9.1zm13.15 0c0-3-1.55-5.69-4.65-5.69s-4.65 2.7-4.65 5.69 1.51 5.69 4.65 5.69 4.65-2.67 4.65-5.69zM355.12 311.62c1.56 0 2.17.79 2.17 2.37 0 4.78-3.11 8.36-8.06 8.36s-8.51-4-8.51-9.1 3.46-9.1 8.51-9.1c3.74 0 6.8 1.76 6.8 3.49a1.56 1.56 0 01-1.53 1.73c-1.68 0-2-1.81-5.27-1.81s-4.65 2.7-4.65 5.69 1.51 5.69 4.65 5.69c1.95 0 4.21-1.09 4.21-3.91h-2.53a1.71 1.71 0 110-3.41zM359.33 306.23a1.86 1.86 0 113.71 0v14a1.86 1.86 0 11-3.71 0zM365.76 306.6c0-1.24.62-2.15 1.93-2.15h6.13a1.65 1.65 0 011.76 1.7 1.68 1.68 0 01-1.76 1.71h-4.35v3.61h4.06a1.67 1.67 0 011.8 1.71 1.7 1.7 0 01-1.8 1.7h-4.06v3.76H374a1.65 1.65 0 011.76 1.71 1.68 1.68 0 01-1.76 1.71h-6.38a1.8 1.8 0 01-1.9-1.86zM40 195.75c0-5.11 3.19-8.51 7.66-8.51s7.66 3.4 7.66 8.51v20.84h.21c3.19-3.94 9.14-5.32 13.93-5.32 12 0 21 7.66 21 20.63v29.35c0 5.1-3.19 8.51-7.66 8.51s-7.65-3.41-7.65-8.51v-26.69c0-7.12-4.47-10.53-10-10.53-6.27 0-9.78 4.57-9.78 10.53v26.69c0 5.1-3.19 8.51-7.66 8.51S40 266.35 40 261.25zM153.91 240.94c0 15.95-10.95 29.46-27.44 29.46S99 256.89 99 240.94c0-15.53 11.27-29.67 27.43-29.67s27.48 14.14 27.48 29.67zm-39.56 0c0 7.34 3.83 15.42 12.12 15.42s12.13-8.08 12.13-15.42-3.73-15.63-12.13-15.63-12.12 8.29-12.12 15.63zM158.8 225.31a21.19 21.19 0 01-1.6-7.23c0-3.41 3.19-6.17 7.66-6.17 3.72 0 6.38 2.45 7.23 6.06l8.83 29.24h.21l8.93-28.6c1.17-4.15 3.3-6.7 7.76-6.7s6.6 2.55 7.77 6.7l8.93 28.6h.21l8.83-29.21c.85-3.61 3.51-6.06 7.23-6.06 4.47 0 7.66 2.76 7.66 7.44 0 1.7-.75 3.41-1.49 5.75L223.88 262c-1.6 4.47-4.25 7.77-9.25 7.77-4.68 0-7.45-2.66-8.83-7.13L197.93 238h-.21l-7.87 24.67c-1.38 4.47-4.15 7.13-8.83 7.13-5 0-7.65-3.3-9.25-7.77zM258 245.94c1.06 7.55 7.34 11.06 14.46 11.06 7.87 0 13.3-6.17 17.34-6.17 3.29 0 6.27 3.3 6.27 6.59 0 6.6-13.61 13-25 13-17.23 0-28.71-12.55-28.71-29.46 0-15.53 11.27-29.67 27.43-29.67 16.59 0 27.55 15.1 27.55 27.86 0 4.58-2 6.81-6.7 6.81zm24-10.21c-.8-6.73-5-11.73-12.18-11.73-6.8 0-11.37 5.21-12.12 11.7zM337.14 229.14c-2.87 0-8.72-4.47-13.72-4.47-2.76 0-5.21 1.28-5.21 4.25 0 7.13 26.59 6.07 26.59 23.51 0 10.2-8.62 18-21.8 18-8.62 0-21.38-4.9-21.38-11.81 0-2.34 2.34-6.8 6.6-6.8 5.95 0 8.61 5.21 15.84 5.21 4.68 0 6.06-1.49 6.06-4.36 0-7-26.58-6-26.58-23.5 0-10.64 8.61-17.87 20.73-17.87 7.55 0 19.15 3.51 19.15 11.06 0 3.48-2.66 6.78-6.28 6.78zM358.2 226h-3.4c-4.15 0-6.7-2.56-6.7-6.7a6.54 6.54 0 016.7-6.7h3.4v-9.2c0-5.1 3.19-8.51 7.66-8.51s7.65 3.41 7.65 8.51v9.15h4.36c3.94 0 7.34 1.81 7.34 6.7s-3.4 6.7-7.34 6.7h-4.36v35.3c0 5.1-3.19 8.51-7.65 8.51s-7.66-3.41-7.66-8.51zM232.94 146.05l-25.42 14-25.41-14v29.3l15.23 8.8a20.36 20.36 0 0020.37 0l15.23-8.8z" transform="translate(-38.99 -21.24)"/><path d="M271.79 55.19L217.71 24a20.36 20.36 0 00-20.37 0l-54.08 31.19a20.39 20.39 0 00-10.19 17.64v62.45a20.38 20.38 0 0010.19 17.64l9.41 5.44V76.28a4.39 4.39 0 016.59-3.8l48.3 27.21 48.23-27.21a4.38 4.38 0 016.58 3.8v82.08l9.42-5.44A20.37 20.37 0 00282 135.28V72.83a20.38 20.38 0 00-10.21-17.64z" transform="translate(-38.99 -21.24)"/></svg>